<svg width="127" height="125.45" xmlns="http://www.w3.org/2000/svg">

 <g>
  <title>background</title>
  <rect fill="none" id="canvas_background" height="127.45" width="129" y="-1" x="-1"/>
 </g>
 <g>
  <title>Layer 1</title>
  <path fill="#ffffff" id="path3966" d="m18.818868,112.989441l52.146,0c0,0 -11.566,-26.269 -8.626,-50.381c2.941,-24.112 21.956,-35.091 32.738,-36.267c10.781,-1.177 16.663,5.489 16.663,5.489l2.353,-3.529c0,0 -15.487,-15.683 -35.091,-13.918c-19.604,1.764 -33.13,14.702 -41.559,30.385c-8.43,15.684 -13.331,26.661 -16.663,43.128s-1.961,25.093 -1.961,25.093z"/>
  <path fill="#ffffff" id="path3968" d="m8.429868,86.720441l10.194,0.784l-1.765,10.193l-9.605,-1.176l1.176,-9.801z"/>
  <path fill="#ffffff" id="path3970" d="m24.504868,65.156441l2.745,-7.645l-9.018,-3.529l-2.94,8.233l9.213,2.941z"/>
  <path fill="#ffffff" id="path3972" d="m37.246868,38.887441l5.293,-6.272l-6.861,-4.509l-5.489,6.076l7.057,4.705z"/>
  <path fill="#ffffff" id="path3974" d="m51.164868,14.579441l4.705,5.685l6.469,-3.725l-4.705,-5.293l-6.469,3.333z"/>
  <path fill="#ffffff" id="path3976" d="m74.101868,8.110441l1.176,5.686l8.038,-0.196l-0.785,-5.097l-8.429,-0.393z"/>
  <path fill="#ffffff" id="path3978" d="m101.350868,14.187441l-0.196,3.528l5.489,2.94l1.176,-1.764l-6.469,-4.704z"/>
  <path fill="#ffffff" id="path3980" d="m100.173868,29.282441l0,2.94l5.293,0.588l0,-2.353l-5.293,-1.175z"/>
  <path fill="#ffffff" id="path3982" d="m83.315868,31.830441l2.548,4.704l3.725,-2.94l-0.784,-3.137l-5.489,1.373z"/>
  <path fill="#ffffff" id="path3984" d="m75.276868,37.908441l3.921,5.881l-2.353,4.116l-5.685,-6.272l4.117,-3.725z"/>
  <path fill="#ffffff" id="path3986" d="m67.436868,54.178441l-2.549,5.097l6.665,5.686l1.568,-6.47l-5.684,-4.313z"/>
  <path fill="#ffffff" id="path3988" d="m64.691868,72.017441l-0.392,6.861l8.233,3.529l-0.392,-6.47l-7.449,-3.92z"/>
  <path fill="#ffffff" id="path3990" d="m67.043868,96.326441l1.961,7.058l10.389,0.588l-3.725,-7.646l-8.625,0z"/>
 </g>
</svg>